<?xml version="1.0" encoding="UTF-8" standalone="no"?>
<!DOCTYPE svg PUBLIC "-//W3C//DTD SVG 1.1//EN" "http://www.w3.org/Graphics/SVG/1.1/DTD/svg11.dtd">
<svg version="1.1" xmlns="http://www.w3.org/2000/svg" xmlns:xlink="http://www.w3.org/1999/xlink" preserveAspectRatio="xMidYMid meet" viewBox="0 0 68 68" width="68" height="68"><defs><path d="M36.41 4.76C38.64 6.02 56.49 16.08 58.72 17.34C60.11 18.12 61.05 19.68 61.03 21.29C61.03 23.81 61.03 43.98 61.03 46.5C61.04 48.18 60.02 49.77 58.55 50.54C56.33 51.79 38.57 61.81 36.35 63.06C34.81 63.91 32.92 63.86 31.42 62.92C30.76 62.54 25.43 59.46 24.76 59.07C24.31 58.8 23.8 58.59 23.48 58.15C23.76 57.77 24.27 57.72 24.68 57.55C25.6 57.26 26.45 56.8 27.3 56.33C27.52 56.18 27.78 56.23 27.99 56.37C28.56 56.7 33.1 59.32 33.67 59.65C34.07 59.89 34.48 59.58 34.83 59.38C37.01 58.15 54.44 48.31 56.62 47.08C56.89 46.95 57.04 46.67 57.02 46.37C57.02 43.88 57.02 23.9 57.02 21.4C57.05 21.06 56.86 20.76 56.55 20.62C54.34 19.37 36.63 9.4 34.41 8.15C34.15 7.97 33.81 7.97 33.55 8.15C31.34 9.4 13.65 19.39 11.44 20.64C11.14 20.78 10.94 21.08 10.97 21.42C10.97 23.92 10.97 43.9 10.97 46.39C10.95 46.69 11.1 46.97 11.38 47.09C11.97 47.43 16.69 50.1 17.28 50.43C18.39 51.03 19.75 51.36 20.98 50.92C22.07 50.51 22.79 49.46 22.79 48.29C22.79 45.81 22.79 25.95 22.8 23.47C22.77 23.1 23.12 22.79 23.47 22.83C23.76 22.83 26.03 22.83 26.31 22.83C26.69 22.82 26.98 23.22 26.93 23.59C26.93 26.09 26.92 46.07 26.92 48.57C26.93 50.79 26.01 53.2 23.96 54.29C21.43 55.6 18.3 55.33 15.8 54.07C15.17 53.72 10.09 50.91 9.45 50.56C7.96 49.81 6.96 48.2 6.97 46.52C6.97 44 6.97 23.83 6.97 21.3C6.98 19.63 7.89 18.1 9.36 17.3C10.84 16.47 18.24 12.29 31.55 4.76C33.82 4.19 35.43 4.19 36.41 4.76ZM47.57 23.71C49.81 24.93 51.06 27.48 51.1 29.98C51.04 30.32 50.69 30.5 50.36 30.48C49.43 30.48 48.49 30.49 47.55 30.47C47.16 30.49 46.93 30.12 46.88 29.77C46.61 28.58 45.96 27.39 44.83 26.82C43.11 25.95 41.1 25.99 39.22 26.01C37.84 26.09 36.37 26.2 35.2 27.01C34.31 27.62 34.04 28.88 34.36 29.85C34.66 30.57 35.48 30.8 36.16 31.01C40.05 32.03 44.17 31.95 47.98 33.27C49.56 33.81 51.11 34.87 51.65 36.53C52.35 38.74 52.05 41.39 50.47 43.17C49.19 44.63 47.33 45.41 45.47 45.86C43 46.42 40.44 46.43 37.93 46.18C35.57 45.91 33.12 45.29 31.29 43.69C29.74 42.33 28.98 40.23 29.05 38.19C29.07 37.85 29.41 37.61 29.74 37.64C30.02 37.64 32.27 37.64 32.55 37.64C32.92 37.61 33.2 37.94 33.22 38.29C33.39 39.41 33.82 40.63 34.81 41.28C36.73 42.52 39.14 42.43 41.33 42.47C43.15 42.39 45.19 42.36 46.67 41.16C47.46 40.47 47.69 39.33 47.47 38.34C47.24 37.51 46.35 37.12 45.61 36.85C41.77 35.63 37.6 36.08 33.8 34.7C32.26 34.16 30.76 33.12 30.17 31.54C29.34 29.3 29.72 26.52 31.47 24.8C33.15 23.09 35.61 22.43 37.95 22.2C41.21 22.05 44.66 22.12 47.57 23.71Z" id="c2EPrcwtuq"></path></defs><g><g><g><use xlink:href="#c2EPrcwtuq" opacity="1" fill="#8cc84b" fill-opacity="1"></use><g><use xlink:href="#c2EPrcwtuq" opacity="1" fill-opacity="0" stroke="#000000" stroke-width="1" stroke-opacity="0"></use></g></g></g></g></svg>